<?xml version="1.0" encoding="UTF-8" standalone="no"?>
<!-- Created with Inkscape (http://www.inkscape.org/) -->

<svg
   xmlns:dc="http://purl.org/dc/elements/1.1/"
   xmlns:cc="http://creativecommons.org/ns#"
   xmlns:rdf="http://www.w3.org/1999/02/22-rdf-syntax-ns#"
   xmlns:svg="http://www.w3.org/2000/svg"
   xmlns="http://www.w3.org/2000/svg"
   xmlns:xlink="http://www.w3.org/1999/xlink"
   xmlns:sodipodi="http://sodipodi.sourceforge.net/DTD/sodipodi-0.dtd"
   xmlns:inkscape="http://www.inkscape.org/namespaces/inkscape"
   width="173.82423mm"
   height="56.665966mm"
   viewBox="0 0 173.82423 56.665966"
   version="1.1"
   id="svg13789"
   inkscape:version="0.92.1 r15371"
   sodipodi:docname="img11.svg">
  <defs
     id="defs13783">
    <radialGradient
       inkscape:collect="always"
       xlink:href="#linearGradient5221"
       id="radialGradient7661"
       gradientUnits="userSpaceOnUse"
       gradientTransform="matrix(1.116481,0.00900051,-0.00550759,0.79624955,80.798766,128.53964)"
       cx="65.887291"
       cy="113.10328"
       fx="65.887291"
       fy="113.10328"
       r="26.073229" />
    <linearGradient
       inkscape:collect="always"
       id="linearGradient5221">
      <stop
         style="stop-color:#b576ff;stop-opacity:1;"
         offset="0"
         id="stop5217" />
      <stop
         style="stop-color:#4b1888;stop-opacity:1"
         offset="1"
         id="stop5219" />
    </linearGradient>
    <radialGradient
       inkscape:collect="always"
       xlink:href="#linearGradient5221"
       id="radialGradient13729"
       gradientUnits="userSpaceOnUse"
       gradientTransform="matrix(1.116481,0.00900051,-0.00550759,0.79624955,74.988116,154.50344)"
       cx="65.887291"
       cy="113.10328"
       fx="65.887291"
       fy="113.10328"
       r="26.073229" />
  </defs>
  <sodipodi:namedview
     id="base"
     pagecolor="#ffffff"
     bordercolor="#666666"
     borderopacity="1.0"
     inkscape:pageopacity="0.0"
     inkscape:pageshadow="2"
     inkscape:zoom="0.7"
     inkscape:cx="127.72917"
     inkscape:cy="211.47852"
     inkscape:document-units="mm"
     inkscape:current-layer="layer1"
     showgrid="false"
     fit-margin-top="0"
     fit-margin-left="0"
     fit-margin-right="0"
     fit-margin-bottom="0"
     inkscape:window-width="1536"
     inkscape:window-height="793"
     inkscape:window-x="-8"
     inkscape:window-y="-8"
     inkscape:window-maximized="1" />
  <metadata
     id="metadata13786">
    <rdf:RDF>
      <cc:Work
         rdf:about="">
        <dc:format>image/svg+xml</dc:format>
        <dc:type
           rdf:resource="http://purl.org/dc/dcmitype/StillImage" />
        <dc:title></dc:title>
      </cc:Work>
    </rdf:RDF>
  </metadata>
  <g
     inkscape:label="Layer 1"
     inkscape:groupmode="layer"
     id="layer1"
     transform="translate(-18.921215,-168.50333)">
    <path
       style="fill:#a2323e;fill-opacity:1;stroke:#733038;stroke-width:0.33325493px;stroke-linecap:butt;stroke-linejoin:miter;stroke-opacity:1"
       d="m 145.71513,180.47513 c -1.62005,-0.30299 -4.41053,0.70297 -4.73913,2.52747 -1.00011,5.55322 5.82644,10.31605 10.7575,12.6678 11.81548,5.63509 24.86664,5.19635 39.01774,0.54812 0,0 -29.41587,-12.822 -45.03611,-15.74339 z"
       id="path4760-0"
       inkscape:connector-curvature="0"
       sodipodi:nodetypes="saacs" />
    <rect
       style="opacity:1;fill:#edcbbc;fill-opacity:1;stroke:none;stroke-width:0.5858317;stroke-miterlimit:4;stroke-dasharray:none;stroke-dashoffset:0;stroke-opacity:1;paint-order:fill markers stroke"
       id="rect6780"
       width="163.30168"
       height="40.624969"
       x="18.921215"
       y="184.54433" />
    <rect
       style="opacity:1;fill:#503174;fill-opacity:1;stroke:none;stroke-width:0.46499997;stroke-miterlimit:4;stroke-dasharray:none;stroke-dashoffset:0;stroke-opacity:1;paint-order:fill markers stroke"
       id="rect6692"
       width="156.88721"
       height="35.279575"
       x="22.395718"
       y="186.6825" />
    <g
       id="g6877"
       transform="translate(3.301009,71.809292)">
      <path
         sodipodi:nodetypes="ccccccsc"
         inkscape:connector-curvature="0"
         id="path4790-3"
         d="m 157.58644,102.03714 -1.40024,-5.16047 c -2.33173,0.222859 -5.09815,1.303842 -5.31245,4.66231 0.74856,0.83639 2.82887,2.14779 4.14326,3.20402 -1.57675,-0.79494 -3.24374,-1.77489 -4.66566,-2.39598 -3.08912,1.38994 -2.9887,3.87904 -2.66353,5.53828 0,0 5.89705,-0.611 6.10766,-0.611 0.21061,0 3.79096,-5.23716 3.79096,-5.23716 z"
         style="fill:#474747;fill-opacity:1;stroke:#000000;stroke-width:0.33955789px;stroke-linecap:butt;stroke-linejoin:miter;stroke-opacity:1" />
      <path
         style="opacity:0.353;fill:none;stroke:#000000;stroke-width:0.33955789px;stroke-linecap:butt;stroke-linejoin:miter;stroke-opacity:1"
         d="m 158.91117,103.88974 3.12737,-4.073562 -0.80418,4.690772 3.33587,2.43796 -4.05069,0.21602 -2.05515,3.05517 -0.26806,-3.95012 -3.30609,-2.2528 z"
         id="path4659-7"
         inkscape:connector-curvature="0" />
      <path
         sodipodi:nodetypes="caccccccccc"
         inkscape:connector-curvature="0"
         id="path4758-9"
         d="m 178.39208,112.35348 c 0,0 12.70126,5.27031 10.66291,9.69012 -4.86557,10.55014 -33.35876,-5.98689 -33.35876,-5.98689 -6.31645,-3.30601 -10.95232,-4.82952 -16.2624,-6.9127 l 13.82006,-2.22195 7.1483,-8.887753 c 3.13731,-1.069823 6.67175,-1.316708 10.60332,-0.740648 0.83594,0.70421 1.20241,1.686377 5.24209,0.493763 1.07498,1.526656 7.81347,2.950268 5.95693,9.998728 -2.48359,-4.36001 -5.46401,-4.85911 -8.57797,-4.32044 z"
         style="fill:#60458c;fill-opacity:1;stroke:#2a0b60;stroke-width:0.33955789px;stroke-linecap:butt;stroke-linejoin:miter;stroke-opacity:1" />
      <path
         sodipodi:nodetypes="ccccc"
         inkscape:connector-curvature="0"
         id="path4792-9"
         d="m 178.33252,112.10659 c -4.98394,2.52577 -12.97974,2.18889 -19.30042,-1.54301 2.20138,0.0655 3.22092,-1.44339 4.34855,-2.80829 3.72719,-0.51867 6.99882,-2.27896 10.72246,-3.42549 z"
         style="fill:#503174;fill-opacity:1;stroke:none;stroke-width:0.33955789px;stroke-linecap:butt;stroke-linejoin:miter;stroke-opacity:1" />
      <path
         inkscape:connector-curvature="0"
         id="path4776-3"
         d="m 158.69818,108.43148 c 5.64013,2.74738 12.27469,2.58275 17.85964,2.70587"
         style="fill:none;stroke:#edcbbc;stroke-width:0.59676635;stroke-linecap:butt;stroke-linejoin:miter;stroke-miterlimit:4;stroke-dasharray:none;stroke-opacity:1" />
      <path
         sodipodi:nodetypes="cc"
         inkscape:connector-curvature="0"
         id="path4774-6"
         d="m 156.64933,105.00873 c 4.61672,5.37193 11.93503,0.8439 17.27507,-0.63154"
         style="fill:none;stroke:#edcbbc;stroke-width:0.7251032;stroke-linecap:butt;stroke-linejoin:miter;stroke-miterlimit:4;stroke-dasharray:none;stroke-opacity:1" />
      <ellipse
         ry="4.1460876"
         rx="3.7909608"
         cy="105.94382"
         cx="159.79333"
         id="path4772-0"
         style="opacity:1;fill:#a2323e;fill-opacity:1;stroke:#edcbbc;stroke-width:0.46842951;stroke-miterlimit:4;stroke-dasharray:none;stroke-dashoffset:0;stroke-opacity:1;paint-order:fill markers stroke" />
      <path
         style="fill:#edcbbc;fill-opacity:1;stroke:#d7af9e;stroke-width:0.27356213px;stroke-linecap:butt;stroke-linejoin:miter;stroke-opacity:1"
         d="m 158.24914,104.97991 -0.23743,-4.14884 1.92684,3.30601 3.50809,-0.38142 -2.51388,2.38667 0.36233,3.17543 -2.1618,-2.49698 -3.48418,0.55806 z"
         id="path4768-2"
         inkscape:connector-curvature="0" />
      <path
         inkscape:connector-curvature="0"
         id="path4770-0"
         d="m 153.22235,106.99126 c 6.10166,4.97409 17.82276,8.83824 24.76761,5.41174"
         style="fill:none;stroke:#2a0b60;stroke-width:0.33955789px;stroke-linecap:butt;stroke-linejoin:miter;stroke-opacity:1" />
      <path
         inkscape:connector-curvature="0"
         id="path4764-5"
         d="m 158.97253,103.80518 3.0976,-4.073559 -0.86376,4.721619 3.54437,2.62313 -4.22941,0.0926 -2.20406,3.27118 V 106.274 l -3.6635,-2.43796 z"
         style="fill:#edcbbc;fill-opacity:1;stroke:#d7af9e;stroke-width:0.33955789px;stroke-linecap:butt;stroke-linejoin:miter;stroke-opacity:1" />
      <path
         sodipodi:nodetypes="ccccccccc"
         inkscape:connector-curvature="0"
         id="path4762-6"
         d="m 175.94976,107.35411 -0.0141,2.94825 -2.42819,1.43391 2.56147,0.3086 2.47211,3.14775 -0.20849,-3.27119 2.20406,-1.29613 -2.74017,-0.61721 z"
         style="fill:#edcbbc;fill-opacity:1;stroke:#d7af9e;stroke-width:0.33955789px;stroke-linecap:butt;stroke-linejoin:miter;stroke-opacity:1" />
      <path
         transform="matrix(1.2608033,0,0,1.3063375,52.045812,12.421088)"
         inkscape:transform-center-y="-1.0378906e-006"
         inkscape:transform-center-x="1.3216162e-006"
         d="m 104.97011,82.583021 -0.11407,-0.105959 -0.1532,-0.02768 0.10596,-0.114065 0.0277,-0.153205 0.11407,0.105958 0.1532,0.02768 -0.10596,0.114064 z"
         inkscape:randomized="0"
         inkscape:rounded="0"
         inkscape:flatsided="false"
         sodipodi:arg2="2.0344439"
         sodipodi:arg1="1.2490458"
         sodipodi:r2="0.10564756"
         sodipodi:r1="0.21129511"
         sodipodi:cy="82.382568"
         sodipodi:cx="104.90329"
         sodipodi:sides="4"
         id="path4778-7"
         style="opacity:1;fill:#edcbbc;fill-opacity:1;stroke:#edcbbc;stroke-width:0.46499997;stroke-miterlimit:4;stroke-dasharray:none;stroke-dashoffset:0;stroke-opacity:1;paint-order:fill markers stroke"
         sodipodi:type="star" />
      <path
         transform="matrix(1.2608033,0,0,1.3063375,52.045812,12.421088)"
         inkscape:transform-center-y="-1.0244219e-006"
         inkscape:transform-center-x="1.2786847e-006"
         d="m 101.56242,81.848023 -0.23219,-0.321927 -0.36917,-0.145794 0.32193,-0.232182 0.14579,-0.369175 0.23218,0.321928 0.36918,0.145794 -0.32193,0.232182 z"
         inkscape:randomized="0"
         inkscape:rounded="0"
         inkscape:flatsided="false"
         sodipodi:arg2="2.2318395"
         sodipodi:arg1="1.4464413"
         sodipodi:r2="0.26934949"
         sodipodi:r1="0.53869891"
         sodipodi:cy="81.313484"
         sodipodi:cx="101.4956"
         sodipodi:sides="4"
         id="path4780-9"
         style="opacity:1;fill:#edcbbc;fill-opacity:1;stroke:#edcbbc;stroke-width:0.46499997;stroke-miterlimit:4;stroke-dasharray:none;stroke-dashoffset:0;stroke-opacity:1;paint-order:fill markers stroke"
         sodipodi:type="star" />
      <path
         transform="matrix(1.2608033,0,0,1.3063375,52.045812,12.421088)"
         inkscape:transform-center-y="-1.0084278e-006"
         inkscape:transform-center-x="1.3039386e-006"
         d="m 103.4333,80.244413 -0.0277,-0.153205 -0.10596,-0.114065 0.15321,-0.02768 0.11406,-0.105959 0.0277,0.153206 0.10595,0.114064 -0.1532,0.02768 z"
         inkscape:randomized="0"
         inkscape:rounded="0"
         inkscape:flatsided="false"
         sodipodi:arg2="2.677945"
         sodipodi:arg1="1.8925469"
         sodipodi:r2="0.10564756"
         sodipodi:r1="0.21129511"
         sodipodi:cy="80.043961"
         sodipodi:cx="103.50012"
         sodipodi:sides="4"
         id="path4782-7"
         style="opacity:1;fill:#edcbbc;fill-opacity:1;stroke:#edcbbc;stroke-width:0.46499997;stroke-miterlimit:4;stroke-dasharray:none;stroke-dashoffset:0;stroke-opacity:1;paint-order:fill markers stroke"
         sodipodi:type="star" />
      <path
         transform="matrix(1.2608033,0,0,1.3063375,52.045812,12.421088)"
         inkscape:transform-center-x="1.1330544e-006"
         d="m 90.06983,67.816378 -0.228129,-0.211916 -0.30641,-0.05535 0.211916,-0.228129 0.05535,-0.30641 0.228128,0.211916 0.306411,0.05535 -0.211917,0.228129 z"
         inkscape:randomized="0"
         inkscape:rounded="0"
         inkscape:flatsided="false"
         sodipodi:arg2="2.0344439"
         sodipodi:arg1="1.2490458"
         sodipodi:r2="0.21129511"
         sodipodi:r1="0.42259023"
         sodipodi:cy="67.415474"
         sodipodi:cx="89.936195"
         sodipodi:sides="4"
         id="path4784-4"
         style="opacity:1;fill:#edcbbc;fill-opacity:1;stroke:#edcbbc;stroke-width:0.46499997;stroke-miterlimit:4;stroke-dasharray:none;stroke-dashoffset:0;stroke-opacity:1;paint-order:fill markers stroke"
         sodipodi:type="star" />
      <path
         transform="matrix(1.2608033,0,0,1.3063375,52.045812,12.421088)"
         inkscape:transform-center-x="1.1574664e-006"
         d="m 91.940711,66.880936 -0.255805,-0.365122 -0.412369,-0.169417 0.365122,-0.255806 0.169417,-0.412368 0.255806,0.365121 0.412368,0.169418 -0.365121,0.255805 z"
         inkscape:randomized="0"
         inkscape:rounded="0"
         inkscape:flatsided="false"
         sodipodi:arg2="2.2455373"
         sodipodi:arg1="1.4601391"
         sodipodi:r2="0.30252853"
         sodipodi:r1="0.60505712"
         sodipodi:cy="66.279579"
         sodipodi:cx="91.873894"
         sodipodi:sides="4"
         id="path4786-7"
         style="opacity:1;fill:#edcbbc;fill-opacity:1;stroke:#edcbbc;stroke-width:0.46499997;stroke-miterlimit:4;stroke-dasharray:none;stroke-dashoffset:0;stroke-opacity:1;paint-order:fill markers stroke"
         sodipodi:type="star" />
      <path
         transform="matrix(1.2608033,0,0,1.3063375,52.045812,12.421088)"
         inkscape:transform-center-x="1.1583082e-006"
         d="m 91.807085,68.685003 0.03914,-0.133634 -0.03914,-0.133635 0.133635,0.03914 0.133634,-0.03914 -0.03914,0.133635 0.03914,0.133634 -0.133634,-0.03914 z"
         inkscape:randomized="0"
         inkscape:rounded="0"
         inkscape:flatsided="false"
         sodipodi:arg2="3.1415927"
         sodipodi:arg1="2.3561945"
         sodipodi:r2="0.094494052"
         sodipodi:r1="0.1889881"
         sodipodi:cy="68.551369"
         sodipodi:cx="91.94072"
         sodipodi:sides="4"
         id="path4788-4"
         style="opacity:1;fill:#edcbbc;fill-opacity:1;stroke:#edcbbc;stroke-width:0.46499997;stroke-miterlimit:4;stroke-dasharray:none;stroke-dashoffset:0;stroke-opacity:1;paint-order:fill markers stroke"
         sodipodi:type="star" />
      <path
         sodipodi:nodetypes="cc"
         inkscape:connector-curvature="0"
         id="path4718-5"
         d="m 163.14348,108.44063 c 3.82671,-1.23044 8.54072,0.0104 11.57296,-2.95682"
         style="fill:none;stroke:#ffffff;stroke-width:0.08341895;stroke-linecap:butt;stroke-linejoin:miter;stroke-miterlimit:4;stroke-dasharray:none;stroke-opacity:1" />
      <path
         inkscape:connector-curvature="0"
         id="path5064-3"
         d="m 173.58743,99.717426 c 3.22667,-1.66757 4.02973,1.530124 5.71864,2.221944 -1.83571,-0.71325 -3.91177,-1.17304 -5.71864,-2.221944 z"
         style="fill:#9076b9;fill-opacity:1;stroke:none;stroke-width:0.33955789px;stroke-linecap:butt;stroke-linejoin:miter;stroke-opacity:1" />
      <path
         inkscape:connector-curvature="0"
         id="path5064-1-8"
         d="m 147.58234,109.7232 c 1.96702,-3.13115 4.22259,-0.79538 6.01703,-1.08517 -1.93148,0.34835 -3.94632,1.04137 -6.01703,1.08517 z"
         style="fill:#9076b9;fill-opacity:1;stroke:none;stroke-width:0.33955789px;stroke-linecap:butt;stroke-linejoin:miter;stroke-opacity:1" />
      <path
         transform="matrix(1.2568925,-0.10281226,0.0992286,1.3022854,-14.022925,1.415244)"
         inkscape:transform-center-x="1.7109662e-006"
         d="m 146.38599,102.06733 -0.18232,-0.29708 -0.31377,-0.15177 0.29707,-0.18232 0.15177,-0.31377 0.18232,0.29707 0.31378,0.15177 -0.29708,0.18232 z"
         inkscape:randomized="0"
         inkscape:rounded="0"
         inkscape:flatsided="false"
         sodipodi:arg2="2.3062361"
         sodipodi:arg1="1.5208379"
         sodipodi:r2="0.23653023"
         sodipodi:r1="0.47306046"
         sodipodi:cy="101.59486"
         sodipodi:cx="146.36237"
         sodipodi:sides="4"
         id="path4642-2"
         style="opacity:0.775;fill:#ece9e7;fill-opacity:1;stroke:none;stroke-width:0.175;stroke-miterlimit:4;stroke-dasharray:none;stroke-dashoffset:0;stroke-opacity:1;paint-order:fill markers stroke"
         sodipodi:type="star" />
      <path
         transform="matrix(1.1717299,0.48229361,-0.46548262,1.2140472,55.344052,-76.268651)"
         sodipodi:type="star"
         style="opacity:0.775;fill:#ece9e7;fill-opacity:1;stroke:none;stroke-width:0.175;stroke-miterlimit:4;stroke-dasharray:none;stroke-dashoffset:0;stroke-opacity:1;paint-order:fill markers stroke"
         id="path4644-2"
         sodipodi:sides="4"
         sodipodi:cx="148.35855"
         sodipodi:cy="100.2365"
         sodipodi:r1="0.47306046"
         sodipodi:r2="0.23653023"
         sodipodi:arg1="1.5208379"
         sodipodi:arg2="2.3062361"
         inkscape:flatsided="false"
         inkscape:rounded="0"
         inkscape:randomized="0"
         d="m 148.38217,100.70897 -0.18231,-0.29707 -0.31378,-0.15177 0.29708,-0.18232 0.15177,-0.313777 0.18231,0.297077 0.31378,0.15177 -0.29707,0.18231 z"
         inkscape:transform-center-x="2.8320012e-006" />
      <path
         inkscape:transform-center-y="2.7565632e-006"
         inkscape:transform-center-x="2.1787716e-006"
         d="m 148.38217,100.70897 -0.18231,-0.29707 -0.31378,-0.15177 0.29708,-0.18232 0.15177,-0.313777 0.18231,0.297077 0.31378,0.15177 -0.29707,0.18231 z"
         inkscape:randomized="0"
         inkscape:rounded="0"
         inkscape:flatsided="false"
         sodipodi:arg2="2.3062361"
         sodipodi:arg1="1.5208379"
         sodipodi:r2="0.23653023"
         sodipodi:r1="0.47306046"
         sodipodi:cy="100.2365"
         sodipodi:cx="148.35855"
         sodipodi:sides="4"
         id="path4646-6"
         style="opacity:0.775;fill:#ece9e7;fill-opacity:1;stroke:none;stroke-width:0.175;stroke-miterlimit:4;stroke-dasharray:none;stroke-dashoffset:0;stroke-opacity:1;paint-order:fill markers stroke"
         sodipodi:type="star"
         transform="matrix(1.2017658,-0.39506295,0.3812925,1.2451678,-32.202735,53.861307)" />
      <ellipse
         ry="0.11572605"
         rx="0.096799955"
         cy="119.63729"
         cx="181.91872"
         id="path4648-7"
         style="opacity:1;fill:#ece9e7;fill-opacity:1;stroke:none;stroke-width:0.22458948;stroke-miterlimit:4;stroke-dasharray:none;stroke-dashoffset:0;stroke-opacity:1;paint-order:fill markers stroke" />
      <path
         sodipodi:open="true"
         d="m 181.34535,117.70082 a 0.26061526,0.32403293 0 0 1 -0.26026,0.32403 0.26061526,0.32403293 0 0 1 -0.26097,-0.32315 0.26061526,0.32403293 0 0 1 0.25955,-0.32491 0.26061526,0.32403293 0 0 1 0.26167,0.32228"
         sodipodi:end="6.2777671"
         sodipodi:start="0"
         sodipodi:ry="0.32403293"
         sodipodi:rx="0.26061526"
         sodipodi:cy="117.70082"
         sodipodi:cx="181.08473"
         sodipodi:type="arc"
         id="path4667-5"
         style="opacity:1;fill:#ece9e7;fill-opacity:1;stroke:none;stroke-width:0.22458948;stroke-miterlimit:4;stroke-dasharray:none;stroke-dashoffset:0;stroke-opacity:1;paint-order:fill markers stroke" />
      <path
         d="m 183.32603,118.64976 a 0.12658456,0.16201647 0 0 1 -0.12641,0.16201 0.12658456,0.16201647 0 0 1 -0.12676,-0.16157 0.12658456,0.16201647 0 0 1 0.12607,-0.16246 0.12658456,0.16201647 0 0 1 0.1271,0.16114"
         sodipodi:open="true"
         sodipodi:end="6.2777748"
         sodipodi:start="0"
         sodipodi:ry="0.16201647"
         sodipodi:rx="0.12658456"
         sodipodi:cy="118.64976"
         sodipodi:cx="183.19945"
         sodipodi:type="arc"
         id="path4669-3"
         style="opacity:1;fill:#ece9e7;fill-opacity:1;stroke:none;stroke-width:0.25682789;stroke-miterlimit:4;stroke-dasharray:none;stroke-dashoffset:0;stroke-opacity:1;paint-order:fill markers stroke" />
      <path
         d="m 184.81526,117.79339 a 0.31273833,0.37032333 0 0 1 -0.31232,0.37032 0.31273833,0.37032333 0 0 1 -0.31316,-0.36932 0.31273833,0.37032333 0 0 1 0.31147,-0.37132 0.31273833,0.37032333 0 0 1 0.314,0.36831"
         sodipodi:open="true"
         sodipodi:end="6.2777748"
         sodipodi:start="0"
         sodipodi:ry="0.37032333"
         sodipodi:rx="0.31273833"
         sodipodi:cy="117.79339"
         sodipodi:cx="184.50252"
         sodipodi:type="arc"
         id="path4671-4"
         style="opacity:1;fill:#ece9e7;fill-opacity:1;stroke:none;stroke-width:0.22458948;stroke-miterlimit:4;stroke-dasharray:none;stroke-dashoffset:0;stroke-opacity:1;paint-order:fill markers stroke" />
      <path
         d="m 181.49428,115.84919 a 0.14892301,0.15430142 0 0 1 -0.14873,0.1543 0.14892301,0.15430142 0 0 1 -0.14912,-0.15388 0.14892301,0.15430142 0 0 1 0.14832,-0.15472 0.14892301,0.15430142 0 0 1 0.14952,0.15346"
         sodipodi:open="true"
         sodipodi:end="6.2777748"
         sodipodi:start="0"
         sodipodi:ry="0.15430142"
         sodipodi:rx="0.14892301"
         sodipodi:cy="115.84919"
         sodipodi:cx="181.34535"
         sodipodi:type="arc"
         id="path4673-4"
         style="opacity:1;fill:#ece9e7;fill-opacity:1;stroke:none;stroke-width:0.22458948;stroke-miterlimit:4;stroke-dasharray:none;stroke-dashoffset:0;stroke-opacity:1;paint-order:fill markers stroke" />
      <path
         d="m 166.87127,102.89796 a 0.36856562,0.40369797 0 0 1 -0.36807,0.40369 0.36856562,0.40369797 0 0 1 -0.36906,-0.4026 0.36856562,0.40369797 0 0 1 0.36707,-0.40479 0.36856562,0.40369797 0 0 1 0.37005,0.40151"
         sodipodi:open="true"
         sodipodi:end="6.2777748"
         sodipodi:start="0"
         sodipodi:ry="0.40369797"
         sodipodi:rx="0.36856562"
         sodipodi:cy="102.89796"
         sodipodi:cx="166.5027"
         sodipodi:type="arc"
         id="path4675-0"
         style="opacity:1;fill:#ece9e7;fill-opacity:1;stroke:none;stroke-width:0.24258438;stroke-miterlimit:4;stroke-dasharray:none;stroke-dashoffset:0;stroke-opacity:1;paint-order:fill markers stroke" />
      <path
         d="m 168.80887,100.75398 a 0.15269148,0.15820596 0 0 1 -0.15249,0.15821 0.15269148,0.15820596 0 0 1 -0.1529,-0.15778 0.15269148,0.15820596 0 0 1 0.15207,-0.15863 0.15269148,0.15820596 0 0 1 0.15331,0.15735"
         sodipodi:open="true"
         sodipodi:end="6.2777748"
         sodipodi:start="0"
         sodipodi:ry="0.15820596"
         sodipodi:rx="0.15269148"
         sodipodi:cy="100.75398"
         sodipodi:cx="168.65617"
         sodipodi:type="arc"
         id="path4675-6-1"
         style="opacity:1;fill:#ece9e7;fill-opacity:1;stroke:none;stroke-width:0.09774532;stroke-miterlimit:4;stroke-dasharray:none;stroke-dashoffset:0;stroke-opacity:1;paint-order:fill markers stroke" />
      <path
         d="m 168.97737,100.21936 a 0.06844789,0.08183066 0 0 1 -0.0684,0.0818 0.06844789,0.08183066 0 0 1 -0.0685,-0.0816 0.06844789,0.08183066 0 0 1 0.0682,-0.082 0.06844789,0.08183066 0 0 1 0.0687,0.0814"
         sodipodi:open="true"
         sodipodi:end="6.2777748"
         sodipodi:start="0"
         sodipodi:ry="0.081830658"
         sodipodi:rx="0.068447888"
         sodipodi:cy="100.21936"
         sodipodi:cx="168.90892"
         sodipodi:type="arc"
         id="path4675-5-1"
         style="opacity:1;fill:#ece9e7;fill-opacity:1;stroke:none;stroke-width:0.04706686;stroke-miterlimit:4;stroke-dasharray:none;stroke-dashoffset:0;stroke-opacity:1;paint-order:fill markers stroke" />
      <path
         d="m 166.30263,98.282707 a 0.36856562,0.40369797 0 0 1 -0.36806,0.403698 0.36856562,0.40369797 0 0 1 -0.36907,-0.402606 0.36856562,0.40369797 0 0 1 0.36707,-0.404786 0.36856562,0.40369797 0 0 1 0.37006,0.40151"
         sodipodi:open="true"
         sodipodi:end="6.2777748"
         sodipodi:start="0"
         sodipodi:ry="0.40369797"
         sodipodi:rx="0.36856562"
         sodipodi:cy="98.282707"
         sodipodi:cx="165.93407"
         sodipodi:type="arc"
         id="path4675-59-2"
         style="opacity:1;fill:#ece9e7;fill-opacity:1;stroke:none;stroke-width:0.24258438;stroke-miterlimit:4;stroke-dasharray:none;stroke-dashoffset:0;stroke-opacity:1;paint-order:fill markers stroke" />
      <path
         style="opacity:1;fill:#ece9e7;fill-opacity:1;stroke:none;stroke-width:0.08763372;stroke-miterlimit:4;stroke-dasharray:none;stroke-dashoffset:0;stroke-opacity:1;paint-order:fill markers stroke"
         id="path4704-2"
         sodipodi:type="arc"
         sodipodi:cx="165.02843"
         sodipodi:cy="98.817337"
         sodipodi:rx="0.13689579"
         sodipodi:ry="0.14183982"
         sodipodi:start="0"
         sodipodi:end="6.2777748"
         sodipodi:open="true"
         d="m 165.16532,98.817337 a 0.13689579,0.14183982 0 0 1 -0.13671,0.14184 0.13689579,0.14183982 0 0 1 -0.13708,-0.141456 0.13689579,0.14183982 0 0 1 0.13634,-0.142223 0.13689579,0.14183982 0 0 1 0.13745,0.141072" />
      <path
         d="m 166.9134,100.91219 a 0.13689579,0.14183982 0 0 1 -0.13671,0.14184 0.13689579,0.14183982 0 0 1 -0.13708,-0.14145 0.13689579,0.14183982 0 0 1 0.13634,-0.14223 0.13689579,0.14183982 0 0 1 0.13745,0.14108"
         sodipodi:open="true"
         sodipodi:end="6.2777748"
         sodipodi:start="0"
         sodipodi:ry="0.14183982"
         sodipodi:rx="0.13689579"
         sodipodi:cy="100.91219"
         sodipodi:cx="166.7765"
         sodipodi:type="arc"
         id="path4706-4"
         style="opacity:1;fill:#ece9e7;fill-opacity:1;stroke:none;stroke-width:0.08763372;stroke-miterlimit:4;stroke-dasharray:none;stroke-dashoffset:0;stroke-opacity:1;paint-order:fill markers stroke" />
      <path
         d="m 164.63883,101.68686 a 0.09477402,0.09819679 0 0 1 -0.0947,0.0982 0.09477402,0.09819679 0 0 1 -0.0949,-0.0979 0.09477402,0.09819679 0 0 1 0.0944,-0.0985 0.09477402,0.09819679 0 0 1 0.0952,0.0977"
         sodipodi:open="true"
         sodipodi:end="6.2777748"
         sodipodi:start="0"
         sodipodi:ry="0.09819679"
         sodipodi:rx="0.094774015"
         sodipodi:cy="101.68686"
         sodipodi:cx="164.54405"
         sodipodi:type="arc"
         id="path4675-9-7"
         style="opacity:1;fill:#ece9e7;fill-opacity:1;stroke:none;stroke-width:0.0606695;stroke-miterlimit:4;stroke-dasharray:none;stroke-dashoffset:0;stroke-opacity:1;paint-order:fill markers stroke" />
      <path
         inkscape:connector-curvature="0"
         id="path4714-0"
         d="m 176.15912,107.99328 1.82176,2.57494 0.36857,4.08063"
         style="fill:none;stroke:#ffffff;stroke-width:0.08341895;stroke-linecap:butt;stroke-linejoin:miter;stroke-miterlimit:4;stroke-dasharray:none;stroke-opacity:1" />
      <path
         inkscape:connector-curvature="0"
         id="path4716-1"
         d="m 161.69028,100.42122 -3.20126,4.40795 0.0211,4.93166"
         style="fill:none;stroke:#ffffff;stroke-width:0.08341895;stroke-linecap:butt;stroke-linejoin:miter;stroke-miterlimit:4;stroke-dasharray:none;stroke-opacity:1" />
    </g>
    <text
       xml:space="preserve"
       style="font-style:normal;font-variant:normal;font-weight:normal;font-stretch:normal;font-size:11.81744766px;line-height:1.25;font-family:Elephant;-inkscape-font-specification:'Elephant, Normal';font-variant-ligatures:normal;font-variant-caps:normal;font-variant-numeric:normal;font-feature-settings:normal;text-align:start;letter-spacing:0px;word-spacing:0px;writing-mode:lr-tb;text-anchor:start;fill:#ffffff;fill-opacity:1;stroke:#ffffff;stroke-width:0.29685038;stroke-miterlimit:4;stroke-dasharray:none;stroke-opacity:1"
       x="25.893642"
       y="211.04126"
       id="text4944"
       transform="scale(1.0541374,0.94864294)"><tspan
         sodipodi:role="line"
         x="25.893642"
         y="211.04126"
         style="font-style:normal;font-variant:normal;font-weight:normal;font-stretch:normal;font-size:11.81744766px;font-family:Elephant;-inkscape-font-specification:'Elephant, Normal';font-variant-ligatures:normal;font-variant-caps:normal;font-variant-numeric:normal;font-feature-settings:normal;text-align:start;writing-mode:lr-tb;text-anchor:start;fill:#ffffff;fill-opacity:1;stroke:#ffffff;stroke-width:0.29685038;stroke-miterlimit:4;stroke-dasharray:none;stroke-opacity:1"
         id="tspan13715">   Десерт </tspan><tspan
         sodipodi:role="line"
         x="25.893642"
         y="226.09976"
         style="font-style:normal;font-variant:normal;font-weight:normal;font-stretch:normal;font-size:11.81744766px;font-family:Elephant;-inkscape-font-specification:'Elephant, Normal';font-variant-ligatures:normal;font-variant-caps:normal;font-variant-numeric:normal;font-feature-settings:normal;text-align:start;writing-mode:lr-tb;text-anchor:start;fill:#ffffff;fill-opacity:1;stroke:#ffffff;stroke-width:0.29685038;stroke-miterlimit:4;stroke-dasharray:none;stroke-opacity:1"
         id="tspan14445">с ежевикой</tspan></text>
    <text
       transform="scale(1.0407818,0.96081618)"
       id="text7659"
       y="215.9886"
       x="125.42194"
       style="font-style:normal;font-variant:normal;font-weight:normal;font-stretch:normal;font-size:12.13045502px;line-height:1.25;font-family:Elephant;-inkscape-font-specification:'Elephant, Normal';font-variant-ligatures:normal;font-variant-caps:normal;font-variant-numeric:normal;font-feature-settings:normal;text-align:start;letter-spacing:0px;word-spacing:0px;writing-mode:lr-tb;text-anchor:start;fill:url(#radialGradient7661);fill-opacity:1;stroke:#ffffff;stroke-width:0.30471301;stroke-miterlimit:4;stroke-dasharray:none;stroke-opacity:1"
       xml:space="preserve"><tspan
         id="tspan7657"
         style="font-style:normal;font-variant:normal;font-weight:normal;font-stretch:normal;font-size:12.13045502px;font-family:Elephant;-inkscape-font-specification:'Elephant, Normal';font-variant-ligatures:normal;font-variant-caps:normal;font-variant-numeric:normal;font-feature-settings:normal;text-align:start;writing-mode:lr-tb;text-anchor:start;fill:url(#radialGradient7661);fill-opacity:1;stroke:#ffffff;stroke-width:0.30471301;stroke-miterlimit:4;stroke-dasharray:none;stroke-opacity:1"
         y="215.9886"
         x="125.42194"
         sodipodi:role="line">289 p</tspan></text>
  </g>
</svg>
